<svg class="logowhite" id="Layer_2" data-name="Layer 2" xmlns="http://www.w3.org/2000/svg" viewBox="0 0 893.99 298.7">

    <g id="Layer_2-2" data-name="Layer 2">
        <path class="cls-2" d="M202.12,0v66.47L63.07,146.9l-33.3-19.55s-22.16-9.49-1.45-32.14c3.52-2.43,7.42-4.82,11.75-7.17L202.12,0Z"></path>
        <path class="cls-1" d="M63.07,146.9l-33.3-19.55s-22.16-9.49-1.45-32.14c.07-.08-1.36.93-2.13,1.51-.03,0-.05.03-.08.06-.91.68-1.8,1.36-2.67,2.05.87-.68,1.76-1.37,2.67-2.05-2.49,1.81-4.76,3.64-6.84,5.48-.07.06-.13.11-.2.18-8.92,7.75-15.06,15.94-17.65,27.24-.12.47-.22.94-.32,1.42-.41,1.92-.68,3.82-.82,5.7-.01.15-.02.3-.04.45-.43,5.1-.28,10.79.52,17.25,1.49,31.37,61.75,60.88,61.75,60.88l139.61,83.32v-70.18L63.07,146.9Z"></path>
        <g>
            <path class="cls-1" d="M635.6,243.77h7.44v2.85h-11.04v-21.95h3.6v19.09h0Z"></path>
            <path class="cls-1" d="M656.06,245.76c-1.36-.74-2.36-1.74-3.1-3.1s-1.12-2.98-1.12-4.71.37-3.35,1.12-4.71c.74-1.36,1.86-2.36,3.22-3.1s2.85-1.12,4.46-1.12,3.1.37,4.46,1.12,2.36,1.74,3.22,3.1c.74,1.36,1.12,2.98,1.12,4.71s-.37,3.35-1.24,4.71c-.74,1.36-1.86,2.36-3.22,3.22s-2.85,1.12-4.59,1.12-3.1-.5-4.34-1.24h.01ZM663,243.15c.87-.5,1.49-1.12,1.98-1.98.5-.87.74-1.98.74-3.22s-.25-2.36-.74-3.22c-.5-.87-1.12-1.49-1.86-1.98s-1.61-.62-2.6-.62-1.74.25-2.6.62-1.36,1.12-1.86,1.98c-.5.87-.74,1.98-.74,3.22,0,1.86.5,3.35,1.49,4.34s2.11,1.49,3.6,1.49c.99,0,1.86-.25,2.6-.62h-.01Z"></path>
            <path class="cls-1" d="M683.09,245.76c-1.36-.74-2.36-1.74-3.1-3.1s-1.12-2.98-1.12-4.71.37-3.35,1.12-4.71c.74-1.36,1.86-2.36,3.22-3.1s2.85-1.12,4.46-1.12,3.1.37,4.46,1.12,2.36,1.74,3.22,3.1c.74,1.36,1.12,2.98,1.12,4.71s-.37,3.35-1.24,4.71c-.74,1.36-1.86,2.36-3.22,3.22s-2.85,1.12-4.59,1.12-3.1-.5-4.34-1.24h.01ZM690.03,243.15c.87-.5,1.49-1.12,1.98-1.98.5-.87.74-1.98.74-3.22s-.25-2.36-.74-3.22c-.5-.87-1.12-1.49-1.86-1.98s-1.61-.62-2.6-.62-1.74.25-2.6.62-1.36,1.12-1.86,1.98-.74,1.98-.74,3.22c0,1.86.5,3.35,1.49,4.34s2.11,1.49,3.6,1.49c.99,0,1.86-.25,2.6-.62h-.01Z"></path>
            <path class="cls-1" d="M713.84,237.95l8.06,8.68h-4.84l-6.45-7.44v7.44h-3.6v-23.31h3.6v13.52l6.32-7.56h4.96l-8.06,8.68h.01Z"></path>
            <path class="cls-1" d="M759.71,226.04c1.74.87,3.1,2.23,4.09,3.84s1.49,3.6,1.49,5.83-.5,4.22-1.49,5.83-2.36,2.85-4.09,3.72c-1.74.87-3.84,1.36-6.08,1.36h-7.19v-21.95h7.19c2.36,0,4.34.5,6.08,1.36h0ZM759.59,241.67c1.36-1.36,2.11-3.35,2.11-5.83s-.62-4.46-2.11-5.95c-1.36-1.36-3.35-2.11-5.95-2.11h-3.6v16h3.6c2.6-.12,4.59-.74,5.95-2.11h0Z"></path>
            <path class="cls-1" d="M791.58,239.31h-13.27c.12,1.36.62,2.48,1.49,3.35s2.11,1.24,3.35,1.24c1.98,0,3.35-.74,4.09-2.48h3.84c-.5,1.61-1.49,2.85-2.85,3.97s-3.1,1.49-5.08,1.49c-1.61,0-3.1-.37-4.46-1.12-1.36-.74-2.36-1.74-3.1-3.1s-1.12-2.98-1.12-4.71.37-3.35,1.12-4.71c.74-1.36,1.74-2.36,3.1-3.1s2.85-1.12,4.59-1.12,3.1.37,4.34,1.12c1.24.74,2.23,1.74,2.98,2.98.74,1.24,1.12,2.73,1.12,4.46-.12.62-.12,1.24-.12,1.74h-.02ZM787.86,236.46c0-1.36-.5-2.36-1.36-3.22-.99-.74-2.11-1.24-3.47-1.24-1.24,0-2.36.37-3.22,1.12-.87.74-1.36,1.86-1.61,3.22l9.67.12h-.01Z"></path>
            <path class="cls-1" d="M817.87,239.31h-13.27c.12,1.36.62,2.48,1.49,3.35s2.11,1.24,3.35,1.24c1.98,0,3.35-.74,4.09-2.48h3.84c-.5,1.61-1.49,2.85-2.85,3.97s-3.1,1.49-5.08,1.49c-1.61,0-3.1-.37-4.46-1.12-1.36-.74-2.36-1.74-3.1-3.1s-1.12-2.98-1.12-4.71.37-3.35,1.12-4.71c.74-1.36,1.74-2.36,3.1-3.1s2.85-1.12,4.59-1.12,3.1.37,4.34,1.12c1.24.74,2.23,1.74,2.98,2.98.74,1.24,1.12,2.73,1.12,4.46,0,.62,0,1.24-.12,1.74h-.02ZM814.27,236.46c0-1.36-.5-2.36-1.36-3.22-.99-.74-2.11-1.24-3.47-1.24-1.24,0-2.36.37-3.22,1.12-.87.74-1.36,1.86-1.61,3.22l9.67.12h-.01Z"></path>
            <path class="cls-1" d="M834.61,229.76c.99-.5,2.23-.87,3.6-.87,1.49,0,2.85.37,4.09,1.12,1.24.74,2.23,1.74,2.98,3.1.74,1.36,1.12,2.85,1.12,4.59s-.37,3.35-1.12,4.71c-.74,1.36-1.74,2.48-2.98,3.22s-2.6,1.12-4.09,1.12c-1.36,0-2.48-.25-3.47-.74s-1.86-1.24-2.48-1.98v10.79h-3.6v-25.67h3.6v2.6c.5-.74,1.24-1.36,2.36-1.98h-.01ZM841.92,234.72c-.5-.87-1.12-1.49-1.98-1.98s-1.61-.74-2.6-.74-1.74.25-2.6.74-1.49,1.12-1.98,1.98c-.5.87-.74,1.98-.74,3.1s.25,2.23.74,3.1c.5.87,1.12,1.61,1.98,1.98.87.5,1.61.74,2.6.74s1.74-.25,2.6-.74,1.49-1.12,1.98-2.11c.5-.87.74-1.98.74-3.1s-.25-2.11-.74-2.98h0Z"></path>
            <path class="cls-1" d="M872.55,239.31h-13.27c.12,1.36.62,2.48,1.49,3.35s2.11,1.24,3.35,1.24c1.98,0,3.35-.74,4.09-2.48h3.84c-.5,1.61-1.49,2.85-2.85,3.97s-3.1,1.49-5.08,1.49c-1.61,0-3.1-.37-4.46-1.12-1.36-.74-2.36-1.74-3.1-3.1s-1.12-2.98-1.12-4.71.37-3.35,1.12-4.71,1.74-2.36,3.1-3.1,2.85-1.12,4.59-1.12,3.1.37,4.34,1.12c1.24.74,2.23,1.74,2.98,2.98.74,1.24,1.12,2.73,1.12,4.46,0,.62,0,1.24-.12,1.74h-.02ZM868.95,236.46c0-1.36-.5-2.36-1.36-3.22-.99-.74-2.11-1.24-3.47-1.24-1.24,0-2.36.37-3.22,1.12-.87.74-1.36,1.86-1.61,3.22l9.67.12h-.01Z"></path>
            <path class="cls-1" d="M888.79,229.76c.87-.5,1.86-.74,3.1-.74v3.72h-.87c-1.36,0-2.48.37-3.22,1.12-.74.74-1.12,1.98-1.12,3.72v9.18h-3.6v-17.36h3.6v2.48c.62-.99,1.24-1.61,2.11-2.11h0Z"></path>
        </g>
        <g>
            <path class="cls-1" d="M241.8,177.07l14.38-47.49h21.7l-23.56,66.58h-25.17l-23.56-66.58h21.82l14.38,47.49h0Z"></path>
            <path class="cls-1" d="M285.57,119.53c-2.23-2.11-3.35-4.71-3.35-7.81s1.12-5.83,3.35-7.94,5.21-3.22,8.8-3.22,6.32.99,8.68,3.22c2.23,2.11,3.35,4.71,3.35,7.94s-1.12,5.7-3.35,7.81-5.08,3.22-8.68,3.22-6.45-1.12-8.8-3.22ZM304.54,129.58v66.58h-20.33v-66.58h20.33Z"></path>
            <path class="cls-1" d="M316.69,144.83c2.6-5.21,6.08-9.18,10.54-11.9,4.46-2.73,9.42-4.22,14.88-4.22,4.34,0,8.43.87,12.03,2.73s6.45,4.34,8.56,7.44v-30.87h20.33v88.28h-20.33v-9.67c-1.86,3.22-4.59,5.7-8.18,7.56-3.6,1.86-7.69,2.85-12.4,2.85-5.46,0-10.42-1.36-14.88-4.22-4.46-2.85-7.94-6.82-10.54-12.03s-3.84-11.28-3.84-18.1,1.24-12.77,3.84-17.85h-.01ZM358.47,150.9c-2.85-2.98-6.2-4.46-10.29-4.46s-7.44,1.49-10.29,4.34c-2.85,2.85-4.22,6.94-4.22,12.03s1.36,9.18,4.22,12.15c2.85,2.98,6.2,4.46,10.29,4.46s7.44-1.49,10.29-4.46c2.85-2.98,4.22-6.94,4.22-12.03s-1.49-9.18-4.22-12.03h0Z"></path>
            <path class="cls-1" d="M457.79,167.77h-46.13c.37,4.09,1.61,7.32,3.97,9.42,2.36,2.11,5.21,3.22,8.68,3.22,5.08,0,8.68-2.11,10.66-6.45h21.7c-1.12,4.34-3.1,8.31-6.08,11.78s-6.57,6.2-10.91,8.18c-4.34,1.98-9.3,2.98-14.63,2.98-6.57,0-12.28-1.36-17.36-4.22-5.08-2.73-9.05-6.7-11.9-11.9-2.85-5.21-4.34-11.16-4.34-18.1s1.36-12.9,4.22-18.1c2.85-5.21,6.82-9.18,11.9-11.9,5.08-2.73,10.91-4.22,17.48-4.22s12.15,1.36,17.23,4.09c5.08,2.73,8.93,6.57,11.78,11.53,2.85,4.96,4.22,10.79,4.22,17.48-.12,2.11-.25,4.09-.5,6.2h0ZM437.33,156.48c0-3.47-1.24-6.32-3.6-8.31-2.36-2.11-5.33-3.1-8.93-3.1s-6.32.99-8.68,2.98c-2.36,1.98-3.84,4.84-4.34,8.43h25.55Z"></path>
            <path class="cls-1" d="M481.6,192.94c-5.21-2.73-9.3-6.7-12.28-11.9-2.98-5.21-4.46-11.16-4.46-18.1s1.49-12.9,4.46-18.1c2.98-5.21,7.19-9.18,12.4-12.03s11.16-4.22,17.61-4.22,12.4,1.36,17.61,4.22c5.21,2.73,9.42,6.82,12.4,12.03,2.98,5.21,4.46,11.28,4.46,18.1s-1.49,12.9-4.59,18.1c-3.1,5.21-7.19,9.18-12.52,12.03-5.33,2.73-11.16,4.22-17.73,4.22s-12.15-1.49-17.36-4.34h0ZM509.13,175.21c2.73-2.85,4.09-6.94,4.09-12.28s-1.36-9.42-3.97-12.28c-2.6-2.85-5.95-4.34-9.8-4.34s-7.32,1.36-9.92,4.22-3.97,6.94-3.97,12.28,1.24,9.42,3.84,12.28c2.6,2.85,5.83,4.34,9.67,4.34s7.32-1.36,10.04-4.22h.02Z"></path>
            <path class="cls-1" d="M601.62,136.52c4.71,5.08,6.94,12.03,6.94,20.83v38.81h-20.33v-36.08c0-4.46-1.12-7.94-3.47-10.42-2.36-2.48-5.46-3.72-9.3-3.72s-6.94,1.24-9.3,3.72-3.47,5.95-3.47,10.42v36.08h-20.33v-66.58h20.33v8.8c2.11-2.98,4.84-5.21,8.31-6.94,3.47-1.74,7.44-2.6,11.78-2.6,7.94.12,14.26,2.6,18.85,7.69h-.01Z"></path>
            <path class="cls-1" d="M682.84,167.77h-46.25c.37,4.09,1.61,7.32,3.97,9.42,2.36,2.23,5.21,3.22,8.68,3.22,5.08,0,8.68-2.11,10.66-6.45h21.7c-1.12,4.34-3.1,8.31-6.08,11.78-2.85,3.47-6.57,6.2-10.91,8.18-4.34,1.98-9.3,2.98-14.63,2.98-6.57,0-12.28-1.36-17.36-4.22-5.08-2.73-9.05-6.7-11.9-11.9-2.85-5.21-4.34-11.16-4.34-18.1s1.36-12.9,4.22-18.1c2.85-5.21,6.82-9.18,11.9-11.9,5.08-2.73,10.91-4.22,17.48-4.22s12.15,1.36,17.11,4.09c4.96,2.73,8.93,6.57,11.78,11.53,2.85,4.96,4.22,10.79,4.22,17.48,0,2.11-.12,4.09-.25,6.2h0ZM662.26,156.48c0-3.47-1.24-6.32-3.6-8.31-2.36-2.11-5.33-3.1-8.93-3.1s-6.32.99-8.68,2.98c-2.36,1.98-3.84,4.84-4.34,8.43h25.55Z"></path>
            <path class="cls-1" d="M728.59,178.93v17.23h-10.42c-7.44,0-13.14-1.86-17.24-5.46s-6.2-9.55-6.2-17.73v-26.41h-8.06v-16.99h8.06v-16.12h20.33v16.12h13.39v16.99h-13.39v26.66c0,1.98.5,3.47,1.49,4.34s2.48,1.36,4.71,1.36h7.33Z"></path>
            <path class="cls-1" d="M739.01,119.53c-2.23-2.11-3.35-4.71-3.35-7.81s1.12-5.83,3.35-7.94,5.21-3.22,8.8-3.22,6.32.99,8.68,3.22c2.23,2.11,3.35,4.71,3.35,7.94s-1.12,5.7-3.35,7.81-5.21,3.22-8.68,3.22-6.57-1.12-8.8-3.22ZM757.85,129.58v66.58h-20.33v-66.58h20.33Z"></path>
            <path class="cls-1" d="M770.5,144.83c2.85-5.21,6.82-9.18,11.78-11.9,4.96-2.73,10.79-4.22,17.36-4.22,8.31,0,15.38,2.23,20.95,6.57,5.58,4.34,9.3,10.54,11.04,18.47h-21.7c-1.86-5.08-5.33-7.69-10.66-7.69-3.72,0-6.7,1.49-8.93,4.34-2.23,2.85-3.35,7.07-3.35,12.52s1.12,9.55,3.35,12.52c2.23,2.98,5.21,4.34,8.93,4.34,5.21,0,8.8-2.6,10.66-7.56h21.7c-1.74,7.81-5.46,13.89-11.04,18.35-5.58,4.46-12.65,6.7-20.83,6.7-6.57,0-12.28-1.36-17.36-4.22-5.08-2.73-8.93-6.7-11.78-11.9-2.85-5.21-4.22-11.16-4.22-18.1s1.24-13.14,4.09-18.23h0Z"></path>
            <path class="cls-1" d="M851.59,194.18c-4.59-1.98-8.06-4.71-10.79-8.18-2.73-3.47-4.09-7.32-4.46-11.66h20.09c.25,2.36,1.36,4.22,3.22,5.58s4.22,2.11,7.07,2.11c2.48,0,4.46-.5,5.95-1.49s2.11-2.23,2.11-3.84c0-1.86-.99-3.35-2.98-4.22-1.98-.87-5.21-1.98-9.67-2.98-4.71-1.12-8.68-2.23-11.9-3.47s-5.95-3.22-8.18-5.83c-2.36-2.6-3.47-6.32-3.47-10.79,0-3.84.99-7.32,3.1-10.42,2.11-3.1,5.21-5.58,9.3-7.44,4.09-1.86,8.93-2.73,14.63-2.73,8.31,0,14.88,2.11,19.71,6.2,4.84,4.09,7.56,9.67,8.31,16.49h-18.85c-.37-2.36-1.36-4.09-3.1-5.46-1.74-1.36-3.97-1.98-6.7-1.98-2.36,0-4.22.5-5.46,1.36s-1.86,2.23-1.86,3.72c0,1.86.99,3.35,3.1,4.34s5.21,1.86,9.42,2.85c4.96,1.24,8.93,2.48,12.03,3.72,3.1,1.24,5.83,3.22,8.18,5.95,2.36,2.73,3.6,6.45,3.6,11.04,0,3.84-1.12,7.32-3.22,10.42-2.23,3.1-5.33,5.46-9.42,7.19-4.09,1.74-8.8,2.6-14.26,2.6-5.83-.12-10.91-1.12-15.5-3.1h0v.02Z"></path>
        </g>
    </g>
</svg>