<svg xmlns="http://www.w3.org/2000/svg" viewBox="0 0 64 64">
  <!-- Dark background with rounded corners -->
  <rect width="64" height="64" rx="12" fill="#0f172a"/>
  <!-- Icon mark scaled and centred (original viewBox 202.12 × 298.7 → 32.5 × 48 at scale 0.1607) -->
  <g transform="translate(16, 8) scale(0.1607)">
    <!-- Blue accent triangle -->
    <path fill="#3b82f6" d="M202.12,0v66.47L63.07,146.9l-33.3-19.55s-22.16-9.49-1.45-32.14c3.52-2.43,7.42-4.82,11.75-7.17L202.12,0Z"/>
    <!-- White icon body -->
    <path fill="#ffffff" d="M63.07,146.9l-33.3-19.55s-22.16-9.49-1.45-32.14c.07-.08-1.36.93-2.13,1.51-.03,0-.05.03-.08.06-.91.68-1.8,1.36-2.67,2.05.87-.68,1.76-1.37,2.67-2.05-2.49,1.81-4.76,3.64-6.84,5.48-.07.06-.13.11-.2.18-8.92,7.75-15.06,15.94-17.65,27.24-.12.47-.22.94-.32,1.42-.41,1.92-.68,3.82-.82,5.7-.01.15-.02.3-.04.45-.43,5.1-.28,10.79.52,17.25,1.49,31.37,61.75,60.88,61.75,60.88l139.61,83.32v-70.18L63.07,146.9Z"/>
  </g>
</svg>
